<?xml version="1.0" encoding="UTF-8" standalone="no"?>
<!DOCTYPE svg PUBLIC "-//W3C//DTD SVG 1.1//EN" "http://www.w3.org/Graphics/SVG/1.1/DTD/svg11.dtd">
<svg version="1.1" xmlns="http://www.w3.org/2000/svg" xmlns:xlink="http://www.w3.org/1999/xlink" preserveAspectRatio="xMidYMid meet" viewBox="0 0 550 480" width="550" height="480"><defs><path d="M0 0.52L550 0.52L550 481.71L0 481.71L0 0.52Z" id="a2VyhsUCAB"></path><path d="M517.87 233.42C517.87 356.29 409.64 456.05 276.32 456.05C143 456.05 34.77 356.29 34.77 233.42C34.77 110.54 143 10.79 276.32 10.79C409.64 10.79 517.87 110.54 517.87 233.42Z" id="a1v59WZ4M3"></path><path d="M381.47 168.51L469.86 256.9L381.47 345.28L293.08 256.9L381.47 168.51Z" id="a4PqFV6r4i"></path><path d="M171.38 168.51L259.77 256.9L171.38 345.28L83 256.9L171.38 168.51Z" id="a4CjX5uHP"></path><path d="M276.32 63.67L364.71 152.06L276.32 240.45L187.93 152.06L276.32 63.67Z" id="a3soL62w8x"></path><path d="M214.67 371.64L332.01 371.64L332.01 471.59L214.67 471.59L214.67 371.64Z" id="a2bPV2cXO"></path><path d="M5.48 472.59L5.48 203.88L275 472.59L5.48 472.59Z" id="l3ppio1rM"></path><path d="M545.84 472.59L545.84 203.88L276.32 472.59L545.84 472.59Z" id="a3AddWmxrj"></path></defs><g><g><g><use xlink:href="#a2VyhsUCAB" opacity="1" fill="#42813b" fill-opacity="1"></use></g><g><use xlink:href="#a1v59WZ4M3" opacity="1" fill="#c0aa7e" fill-opacity="1"></use></g><g><use xlink:href="#a4PqFV6r4i" opacity="1" fill="#1f4771" fill-opacity="1"></use><g><use xlink:href="#a4PqFV6r4i" opacity="1" fill-opacity="0" stroke="#1f4771" stroke-width="5" stroke-opacity="1"></use></g></g><g><use xlink:href="#a4CjX5uHP" opacity="1" fill="#c0aa7e" fill-opacity="1"></use><g><use xlink:href="#a4CjX5uHP" opacity="1" fill-opacity="0" stroke="#1f4771" stroke-width="5" stroke-opacity="1"></use></g></g><g><use xlink:href="#a3soL62w8x" opacity="1" fill="#c0aa7e" fill-opacity="1"></use><g><use xlink:href="#a3soL62w8x" opacity="1" fill-opacity="0" stroke="#1f4771" stroke-width="5" stroke-opacity="1"></use></g></g><g><use xlink:href="#a2bPV2cXO" opacity="1" fill="#c0aa7e" fill-opacity="1"></use></g><g><use xlink:href="#l3ppio1rM" opacity="1" fill="#42813b" fill-opacity="1"></use></g><g><use xlink:href="#a3AddWmxrj" opacity="1" fill="#42813b" fill-opacity="1"></use></g></g></g></svg>